<svg xmlns="http://www.w3.org/2000/svg" width="38" height="38" viewBox="0 0 38 38">
  <g id="Subtraction_1" data-name="Subtraction 1" fill="none">
    <path d="M36,38H32.527l1.08-1.08A.993.993,0,0,0,34,37h2a1,1,0,0,0,1-1V34a.994.994,0,0,0-.08-.393L38,32.527V36A2,2,0,0,1,36,38ZM5.473,38H2a2,2,0,0,1-2-2V32.527l1.08,1.08A.992.992,0,0,0,1,34v2a1,1,0,0,0,1,1H4a1,1,0,0,0,.393-.08L5.471,38ZM38,5.473l0,0L36.92,4.393A.994.994,0,0,0,37,4V2a1,1,0,0,0-1-1H34a.993.993,0,0,0-.393.08L32.527,0H36a2,2,0,0,1,2,2V5.473Zm-38,0V2A2,2,0,0,1,2,0H5.473L4.393,1.08A.993.993,0,0,0,4,1H2A1,1,0,0,0,1,2V4a.994.994,0,0,0,.08.393L0,5.471Z" stroke="none"/>
    <path d="M 36.00000381469727 37.99980926513672 L 32.52690505981445 37.99980926513672 L 33.60700607299805 36.91970062255859 C 33.73126602172852 36.97285079956055 33.86318588256836 36.99990081787109 34.00020599365234 36.99990081787109 L 36.00000381469727 36.99990081787109 C 36.55135345458984 36.99990081787109 36.99990463256836 36.55134963989258 36.99990463256836 36 L 36.99990463256836 34.00020980834961 C 36.99990463256836 33.86375045776367 36.97292327880859 33.73146057128906 36.91970443725586 33.60699081420898 L 37.99980545043945 32.52690124511719 L 37.99980545043945 36 C 37.99980545043945 37.10269927978516 37.10269546508789 37.99980926513672 36.00000381469727 37.99980926513672 Z M 5.472904682159424 37.99980926513672 L 5.470204830169678 37.99980926513672 L 1.999804615974426 37.99980926513672 C 0.897114634513855 37.99980926513672 4.632568561646622e-06 37.10269927978516 4.632568561646622e-06 36 L 4.632568561646622e-06 32.52690124511719 L 1.080194592475891 33.60708999633789 C 1.026984691619873 33.73138046264648 0.9999046325683594 33.8632698059082 0.9999046325683594 34.00020980834961 L 0.9999046325683594 36 C 0.9999046325683594 36.55134963989258 1.448454618453979 36.99990081787109 1.999804615974426 36.99990081787109 L 3.99960470199585 36.99990081787109 C 4.136024475097656 36.99990081787109 4.268334865570068 36.97293090820313 4.392844676971436 36.91975021362305 L 5.471104621887207 37.99800109863281 L 5.472904682159424 37.99980926513672 Z M 37.99980545043945 5.47291088104248 L 37.99800491333008 5.471100807189941 L 36.91974639892578 4.392850875854492 C 36.97286605834961 4.268500804901123 36.99990463256836 4.136570930480957 36.99990463256836 3.999610900878906 L 36.99990463256836 1.999810814857483 C 36.99990463256836 1.448460817337036 36.55135345458984 0.999910831451416 36.00000381469727 0.999910831451416 L 34.00020599365234 0.999910831451416 C 33.86377334594727 0.999910831451416 33.73151397705078 1.026920795440674 33.60709381103516 1.080200791358948 L 32.52690505981445 8.178710686479462e-07 L 36.00000381469727 1.081787104340037e-05 C 37.10269546508789 1.081787104340037e-05 37.99980545043945 0.8971208333969116 37.99980545043945 1.999810814857483 L 37.99980545043945 5.470211029052734 L 37.99980545043945 5.47291088104248 Z M 4.632568561646622e-06 5.472900867462158 L 4.632568561646622e-06 5.470211029052734 L 4.632568561646622e-06 1.999810814857483 C 4.632568561646622e-06 0.8971208333969116 0.897114634513855 1.081787104340037e-05 1.999804615974426 1.081787104340037e-05 L 5.472904682159424 1.081787104340037e-05 L 4.392754554748535 1.080160856246948 C 4.268434524536133 1.026980876922607 4.136534690856934 0.999910831451416 3.99960470199585 0.999910831451416 L 1.999804615974426 0.999910831451416 C 1.448454618453979 0.999910831451416 0.9999046325683594 1.448460817337036 0.9999046325683594 1.999810814857483 L 0.9999046325683594 3.999610900878906 C 0.9999046325683594 4.135970592498779 1.026904582977295 4.268240928649902 1.080154657363892 4.392760753631592 L 0.001804632600396872 5.471100807189941 L 4.632568561646622e-06 5.472900867462158 Z" stroke="none" fill="#fff"/>
  </g>
</svg>
